External Loads File
version=1
nRows=31
nColumns=13
Range=5.000000e-03-10 seconds
endheader
time 	forceRightX 	forceRightY 	forceRightZ 	pointRightX 	pointRightY 	pointRightZ 	forceLeftX 	forceLeftY 	forceLeftZ 	pointLeftX 	pointLeftY 	pointLeftZ 		
0.005000 20.170848 87.915788 -0.000000 0.356153 0.386101 -0.161818 32.656459 122.691323 -0.000000 0.052578 0.264056 -0.398633
0.010000 20.661029 88.203496 -0.000000 0.356155 0.386040 -0.161813 30.596265 122.054267 -0.000000 0.052571 0.264095 -0.398641
0.015000 21.070183 88.446870 -0.000000 0.356163 0.385992 -0.161797 28.713992 121.468800 -0.000000 0.052571 0.264128 -0.398651
0.020000 21.397583 88.648197 -0.000000 0.356188 0.385941 -0.161800 27.241999 121.006201 -0.000000 0.052601 0.264182 -0.398508
0.025000 21.545386 88.836470 -0.000000 0.356107 0.386203 -0.161718 26.095735 120.711587 -0.000000 0.052568 0.264212 -0.398535
0.030000 21.715362 88.969339 -0.000000 0.356143 0.386121 -0.161672 25.423420 120.489462 -0.000000 0.052555 0.264263 -0.398511
0.035000 21.807877 89.082162 -0.000000 0.356161 0.386069 -0.161660 24.875767 120.311060 -0.000000 0.052551 0.264302 -0.398522
0.040000 21.869552 89.185100 -0.000000 0.356188 0.386015 -0.161642 24.346413 120.129562 -0.000000 0.052552 0.264376 -0.398522
0.045000 21.935164 89.307539 -0.000000 0.356221 0.385951 -0.161666 23.812699 119.955812 -0.000000 0.052538 0.264440 -0.398533
0.050000 22.037321 89.481160 -0.000000 0.356256 0.385907 -0.161653 23.310227 119.828712 -0.000000 0.052537 0.264479 -0.398537
0.055000 22.217310 89.711399 -0.000000 0.356283 0.385853 -0.161634 22.915430 119.772347 -0.000000 0.052518 0.264517 -0.398544
0.060000 22.478769 89.987240 -0.000000 0.356296 0.385794 -0.161635 22.690465 119.800835 -0.000000 0.052508 0.264606 -0.398540
0.065000 22.770963 90.305415 -0.000000 0.356309 0.385753 -0.161637 22.637658 119.928298 -0.000000 0.052490 0.264642 -0.398545
0.070000 23.098456 90.653532 -0.000000 0.356323 0.385688 -0.161609 22.796303 120.141923 -0.000000 0.052471 0.264692 -0.398555
0.075000 23.424551 91.023449 -0.000000 0.356347 0.385641 -0.161607 23.109631 120.426940 -0.000000 0.052446 0.264759 -0.398548
0.080000 23.699043 91.397342 -0.000000 0.356354 0.385597 -0.161607 23.475738 120.760033 -0.000000 0.052428 0.264804 -0.398548
0.085000 23.910039 91.749186 -0.000000 0.356368 0.385535 -0.161598 23.829729 121.112123 -0.000000 0.052407 0.264859 -0.398561
0.090000 24.036184 92.068320 -0.000000 0.356366 0.385491 -0.161585 24.126905 121.491614 -0.000000 0.052381 0.264904 -0.398560
0.095000 24.109594 92.331901 -0.000000 0.356362 0.385434 -0.161586 24.434144 121.923201 -0.000000 0.052367 0.264955 -0.398553
0.100000 24.149473 92.516951 -0.000000 0.356363 0.385394 -0.161582 24.773722 122.414664 -0.000000 0.052344 0.264987 -0.398567
0.105000 24.189812 92.615612 -0.000000 0.356352 0.385341 -0.161587 25.133223 122.921375 -0.000000 0.052327 0.265018 -0.398562
0.110000 24.220696 92.663611 -0.000000 0.356339 0.385314 -0.161573 25.447293 123.391231 -0.000000 0.052323 0.265029 -0.398608
0.115000 24.256449 92.695800 -0.000000 0.356332 0.385282 -0.161574 25.732205 123.786272 -0.000000 0.052318 0.265072 -0.398612
0.120000 24.257613 92.738689 -0.000000 0.356309 0.385258 -0.161563 25.964689 124.111298 -0.000000 0.052298 0.265084 -0.398574
0.125000 24.225381 92.789152 -0.000000 0.356294 0.385223 -0.161579 26.170670 124.374423 -0.000000 0.052288 0.265094 -0.398570
0.130000 24.154330 92.844722 -0.000000 0.356288 0.385210 -0.161572 26.327836 124.586802 -0.000000 0.052284 0.265099 -0.398604
0.135000 24.072869 92.901857 -0.000000 0.356282 0.385180 -0.161575 26.409206 124.738429 -0.000000 0.052254 0.265098 -0.398564
0.140000 23.986246 92.963242 -0.000000 0.356279 0.385175 -0.161575 26.361415 124.815892 -0.000000 0.052244 0.265109 -0.398568
0.145000 23.910922 93.021201 -0.000000 0.356263 0.385162 -0.161576 26.220198 124.817785 -0.000000 0.052239 0.265112 -0.398555
0.150000 23.859042 93.066383 -0.000000 0.356258 0.385167 -0.161565 26.069153 124.768231 -0.000000 0.052215 0.265112 -0.398559
0.155000 23.838996 93.092680 -0.000000 0.356261 0.385157 -0.161565 25.976781 124.695146 -0.000000 0.052215 0.265097 -0.398561
